<svg width="90" height="90" viewBox="0 0 90 90" fill="none" xmlns="http://www.w3.org/2000/svg">
<path d="M22.7706 16.2116L32.8153 26.2127L26.6138 32.4142L16.6127 22.3695L6.61169 32.4142L0.410156 26.2127L10.4549 16.2116L0.410156 6.21056L6.61169 0.0090332L16.6127 10.0538L26.6138 0.0090332L32.8153 6.21056M89.5899 62.9851L83.3884 56.7836L73.3873 66.8283L63.3863 56.7836L57.1847 62.9851L67.2295 72.9862L57.1847 82.9873L63.3863 89.1888L73.3873 79.1441L83.3884 89.1888L89.5899 82.9873L79.5452 72.9862M81.6852 22.0201L67.6225 40.2316L60.7222 34.6852L65.8319 28.1343C59.3145 29.4582 53.2348 32.4 48.1521 36.689C43.0694 40.978 39.147 46.4764 36.7459 52.6784C40.5471 55.4196 43.2436 59.4289 44.3491 63.9832C45.4545 68.5375 44.896 73.3369 42.7743 77.5157C40.6527 81.6945 37.1076 84.9775 32.7785 86.7726C28.4494 88.5677 23.6213 88.7567 19.1651 87.3054C14.7089 85.8542 10.9181 82.8583 8.47631 78.8581C6.03455 74.8579 5.10265 70.1169 5.84871 65.4901C6.59477 60.8633 8.96968 56.6555 12.545 53.6256C16.1204 50.5957 20.6608 48.9432 25.3473 48.9662C26.4915 48.9708 27.6325 49.0878 28.7538 49.3156C31.7795 41.8066 36.6107 35.1599 42.8193 29.9645C49.028 24.769 56.4223 21.1853 64.3471 19.5308L58.1019 14.8141L63.6483 7.9138M36.2655 68.6189C36.2655 66.4595 35.6251 64.3486 34.4254 62.5531C33.2257 60.7576 31.5205 59.3582 29.5255 58.5318C27.5305 57.7055 25.3352 57.4892 23.2173 57.9105C21.0993 58.3318 19.1539 59.3717 17.627 60.8986C16.1 62.4255 15.0602 64.371 14.6389 66.4889C14.2176 68.6068 14.4338 70.8021 15.2602 72.7971C16.0866 74.7922 17.486 76.4974 19.2815 77.6971C21.077 78.8968 23.1879 79.5371 25.3473 79.5371C28.243 79.5371 31.0201 78.3868 33.0676 76.3393C35.1152 74.2917 36.2655 71.5146 36.2655 68.6189Z" fill="white"/>
</svg>
