<svg width="90" height="90" viewBox="0 0 90 90" fill="none" xmlns="http://www.w3.org/2000/svg">
<path d="M85.8698 8.11628C86.9449 8.11628 87.9759 7.68921 88.7361 6.929C89.4963 6.1688 89.9234 5.13775 89.9234 4.06266C89.9234 2.98757 89.4963 1.95651 88.7361 1.19631C87.9759 0.43611 86.9449 0.0090332 85.8698 0.0090332H77.7625C76.6874 0.0090332 75.6564 0.43611 74.8962 1.19631C74.136 1.95651 73.7089 2.98757 73.7089 4.06266V12.1699H65.6017C64.5266 12.1699 63.4955 12.597 62.7353 13.3572C61.9751 14.1174 61.548 15.1484 61.548 16.2235V40.5453H56.7485C55.923 38.1758 54.3806 36.1219 52.3352 34.6685C50.2898 33.2151 47.8427 32.4342 45.3335 32.4342C42.8243 32.4342 40.3773 33.2151 38.3319 34.6685C36.2865 36.1219 34.744 38.1758 33.9185 40.5453H29.119V16.2235C29.119 15.1484 28.6919 14.1174 27.9317 13.3572C27.1715 12.597 26.1405 12.1699 25.0654 12.1699H16.9582V4.06266C16.9582 2.98757 16.5311 1.95651 15.7709 1.19631C15.0107 0.43611 13.9796 0.0090332 12.9045 0.0090332H4.79728C3.72219 0.0090332 2.69113 0.43611 1.93093 1.19631C1.17073 1.95651 0.743652 2.98757 0.743652 4.06266C0.743652 5.13775 1.17073 6.1688 1.93093 6.929C2.69113 7.68921 3.72219 8.11628 4.79728 8.11628H8.8509V24.3308H4.79728C3.72219 24.3308 2.69113 24.7579 1.93093 25.5181C1.17073 26.2783 0.743652 27.3093 0.743652 28.3844C0.743652 29.4595 1.17073 30.4906 1.93093 31.2508C2.69113 32.011 3.72219 32.438 4.79728 32.438H12.9045C13.9796 32.438 15.0107 32.011 15.7709 31.2508C16.5311 30.4906 16.9582 29.4595 16.9582 28.3844V20.2772H21.0118V68.9207H16.9582V60.8134C16.9582 59.7383 16.5311 58.7073 15.7709 57.9471C15.0107 57.1869 13.9796 56.7598 12.9045 56.7598H4.79728C3.72219 56.7598 2.69113 57.1869 1.93093 57.9471C1.17073 58.7073 0.743652 59.7383 0.743652 60.8134C0.743652 61.8885 1.17073 62.9196 1.93093 63.6798C2.69113 64.44 3.72219 64.867 4.79728 64.867H8.8509V81.0815H4.79728C3.72219 81.0815 2.69113 81.5086 1.93093 82.2688C1.17073 83.029 0.743652 84.0601 0.743652 85.1352C0.743652 86.2103 1.17073 87.2413 1.93093 88.0015C2.69113 88.7617 3.72219 89.1888 4.79728 89.1888H12.9045C13.9796 89.1888 15.0107 88.7617 15.7709 88.0015C16.5311 87.2413 16.9582 86.2103 16.9582 85.1352V77.0279H25.0654C26.1405 77.0279 27.1715 76.6008 27.9317 75.8406C28.6919 75.0804 29.119 74.0494 29.119 72.9743V48.6525H33.9185C34.744 51.0221 36.2865 53.076 38.3319 54.5294C40.3773 55.9828 42.8243 56.7636 45.3335 56.7636C47.8427 56.7636 50.2898 55.9828 52.3352 54.5294C54.3806 53.076 55.923 51.0221 56.7485 48.6525H61.548V72.9743C61.548 74.0494 61.9751 75.0804 62.7353 75.8406C63.4955 76.6008 64.5266 77.0279 65.6017 77.0279H73.7089V85.1352C73.7089 86.2103 74.136 87.2413 74.8962 88.0015C75.6564 88.7617 76.6874 89.1888 77.7625 89.1888H85.8698C86.9449 89.1888 87.9759 88.7617 88.7361 88.0015C89.4963 87.2413 89.9234 86.2103 89.9234 85.1352C89.9234 84.0601 89.4963 83.029 88.7361 82.2688C87.9759 81.5086 86.9449 81.0815 85.8698 81.0815H81.8162V64.867H85.8698C86.9449 64.867 87.9759 64.44 88.7361 63.6798C89.4963 62.9196 89.9234 61.8885 89.9234 60.8134C89.9234 59.7383 89.4963 58.7073 88.7361 57.9471C87.9759 57.1869 86.9449 56.7598 85.8698 56.7598H77.7625C76.6874 56.7598 75.6564 57.1869 74.8962 57.9471C74.136 58.7073 73.7089 59.7383 73.7089 60.8134V68.9207H69.6553V20.2772H73.7089V28.3844C73.7089 29.4595 74.136 30.4906 74.8962 31.2508C75.6564 32.011 76.6874 32.438 77.7625 32.438H85.8698C86.9449 32.438 87.9759 32.011 88.7361 31.2508C89.4963 30.4906 89.9234 29.4595 89.9234 28.3844C89.9234 27.3093 89.4963 26.2783 88.7361 25.5181C87.9759 24.7579 86.9449 24.3308 85.8698 24.3308H81.8162V8.11628H85.8698ZM45.3335 48.6525C44.5318 48.6525 43.7481 48.4148 43.0815 47.9694C42.4148 47.524 41.8953 46.8909 41.5885 46.1502C41.2817 45.4095 41.2014 44.5944 41.3578 43.8081C41.5142 43.0218 41.9003 42.2995 42.4672 41.7326C43.0341 41.1657 43.7564 40.7796 44.5427 40.6232C45.329 40.4668 46.1441 40.547 46.8848 40.8538C47.6255 41.1607 48.2586 41.6802 48.704 42.3468C49.1494 43.0135 49.3872 43.7972 49.3872 44.5989C49.3872 45.674 48.9601 46.7051 48.1999 47.4653C47.4397 48.2255 46.4086 48.6525 45.3335 48.6525Z" fill="white"/>
</svg>
