<svg width="1728" height="531" viewBox="0 0 1728 531" fill="none" xmlns="http://www.w3.org/2000/svg">
<rect width="1728" height="530.02" fill="#2B332F" fill-opacity="0.86"/>
<rect y="45.5527" width="70.8674" height="345.538" transform="rotate(-40 0 45.5527)" fill="#2B332F"/>
<rect x="222.237" y="219.77" width="70.8674" height="345.538" transform="rotate(40 222.237 219.77)" fill="#2B332F"/>
<rect x="181.435" y="45.5527" width="70.8674" height="345.538" transform="rotate(-40 181.435 45.5527)" fill="#2B332F"/>
<rect x="403.671" y="219.77" width="70.8674" height="345.538" transform="rotate(40 403.671 219.77)" fill="#2B332F"/>
<rect x="362.869" y="45.5527" width="70.8674" height="345.538" transform="rotate(-40 362.869 45.5527)" fill="#2B332F"/>
<rect x="585.105" y="219.77" width="70.8674" height="345.538" transform="rotate(40 585.105 219.77)" fill="#2B332F"/>
<rect x="544.303" y="45.5527" width="70.8674" height="345.538" transform="rotate(-40 544.303 45.5527)" fill="#2B332F"/>
<rect x="766.54" y="219.77" width="70.8674" height="345.538" transform="rotate(40 766.54 219.77)" fill="#2B332F"/>
<rect x="725.738" y="45.5527" width="70.8674" height="345.538" transform="rotate(-40 725.738 45.5527)" fill="#2B332F"/>
<rect x="947.975" y="219.77" width="70.8674" height="345.538" transform="rotate(40 947.975 219.77)" fill="#2B332F"/>
<rect x="907.172" y="45.5527" width="70.8674" height="345.538" transform="rotate(-40 907.172 45.5527)" fill="#2B332F"/>
<rect x="1129.41" y="219.77" width="70.8674" height="345.538" transform="rotate(40 1129.41 219.77)" fill="#2B332F"/>
<rect x="1088.61" y="45.5527" width="70.8674" height="345.538" transform="rotate(-40 1088.61 45.5527)" fill="#2B332F"/>
<rect x="1310.84" y="219.77" width="70.8674" height="345.538" transform="rotate(40 1310.84 219.77)" fill="#2B332F"/>
<rect x="1270.04" y="45.5527" width="70.8674" height="345.538" transform="rotate(-40 1270.04 45.5527)" fill="#2B332F"/>
<rect x="1492.28" y="219.77" width="70.8674" height="345.538" transform="rotate(40 1492.28 219.77)" fill="#2B332F"/>
<rect x="1451.48" y="45.5527" width="70.8674" height="345.538" transform="rotate(-40 1451.48 45.5527)" fill="#2B332F"/>
<rect x="1673.71" y="219.77" width="70.8674" height="345.538" transform="rotate(40 1673.71 219.77)" fill="#2B332F"/>
</svg>
