<svg width="90" height="90" viewBox="0 0 90 90" fill="none" xmlns="http://www.w3.org/2000/svg">
<path d="M60.9243 27.3348C58.3167 11.2756 52.1664 0 45.009 0C37.8516 0 31.7013 11.2756 29.0937 27.3348H60.9243ZM27.7449 44.5989C27.7449 48.5912 27.9607 52.4217 28.3384 56.1083H61.6617C62.0393 52.4217 62.2551 48.5912 62.2551 44.5989C62.2551 40.6065 62.0393 36.7761 61.6617 33.0895H28.3384C27.9607 36.7761 27.7449 40.6065 27.7449 44.5989ZM86.1371 27.3348C80.9938 15.1241 70.5814 5.68276 57.7233 1.87028C62.1113 7.94867 65.1325 17.1022 66.715 27.3348H86.1371ZM32.2768 1.87028C19.4366 5.68276 9.00623 15.1241 3.88095 27.3348H23.303C24.8676 17.1022 27.8888 7.94867 32.2768 1.87028ZM88.0613 33.0895H67.4343C67.812 36.866 68.0278 40.7324 68.0278 44.5989C68.0278 48.4653 67.812 52.3317 67.4343 56.1083H88.0433C89.0324 52.4217 89.5899 48.5912 89.5899 44.5989C89.5899 40.6065 89.0324 36.7761 88.0613 33.0895ZM21.9903 44.5989C21.9903 40.7324 22.2061 36.866 22.5837 33.0895H1.95673C0.985626 36.7761 0.410156 40.6065 0.410156 44.5989C0.410156 48.5912 0.985626 52.4217 1.95673 56.1083H22.5657C22.2061 52.3317 21.9903 48.4653 21.9903 44.5989ZM29.0937 61.8629C31.7013 77.9221 37.8516 89.1977 45.009 89.1977C52.1664 89.1977 58.3167 77.9221 60.9243 61.8629H29.0937ZM57.7413 87.3275C70.5814 83.515 81.0118 74.0737 86.1551 61.8629H66.733C65.1504 72.0955 62.1292 81.2491 57.7413 87.3275ZM3.88095 61.8629C9.02421 74.0737 19.4366 83.515 32.2948 87.3275C27.9068 81.2491 24.8856 72.0955 23.303 61.8629H3.88095Z" fill="white"/>
</svg>
