<svg width="90" height="90" viewBox="0 0 90 90" fill="none" xmlns="http://www.w3.org/2000/svg">
<path fill-rule="evenodd" clip-rule="evenodd" d="M25.5561 0.0090332C18.52 0.0090332 12.8162 5.71291 12.8162 12.749C12.8162 19.7851 18.52 25.489 25.5561 25.489C28.3636 25.489 30.9591 24.5808 33.0646 23.0423C33.1542 22.9738 33.2444 22.906 33.3351 22.8391C36.3526 20.5093 38.2961 16.8561 38.2961 12.749C38.2961 5.71291 32.5922 0.0090332 25.5561 0.0090332ZM56.2676 23.0423C56.178 22.9738 56.0878 22.906 55.9971 22.8391C52.9796 20.5093 51.0361 16.8561 51.0361 12.749C51.0361 5.71291 56.74 0.0090332 63.7761 0.0090332C70.8124 0.0090332 76.5161 5.71291 76.5161 12.749C76.5161 19.7851 70.8124 25.489 63.7761 25.489C60.9688 25.489 58.3731 24.5809 56.2676 23.0423ZM33.6304 31.859C35.8332 28.051 39.9504 25.489 44.666 25.489C49.3816 25.489 53.4988 28.051 55.7016 31.859C56.7856 33.7329 57.406 35.9085 57.406 38.229C57.406 45.2651 51.7021 50.9689 44.666 50.9689C37.6299 50.9689 31.926 45.2651 31.926 38.229C31.926 35.9085 32.5464 33.7329 33.6304 31.859ZM26.6435 31.8589H9.63102C4.354 31.8589 0.0761719 36.137 0.0761719 41.4139C0.0761719 48.5233 2.9998 54.2192 7.79755 58.0701C9.57369 59.4957 11.5772 60.6468 13.7428 61.5277C15.9451 55.373 21.8286 50.9688 28.741 50.9688H30.4221C27.3961 47.5879 25.5561 43.1232 25.5561 38.2289C25.5561 35.9953 25.9393 33.8513 26.6435 31.8589ZM60.5924 50.9688C67.5045 50.9688 73.3884 55.3729 75.5905 61.5277C77.7563 60.6468 79.7597 59.4957 81.5363 58.0701C86.3335 54.2192 89.2573 48.5233 89.2573 41.4139C89.2573 36.1368 84.9793 31.8589 79.7024 31.8589H62.69C63.3939 33.8513 63.7774 35.9953 63.7774 38.2289C63.7774 43.1232 61.9371 47.5879 58.9114 50.9688H60.5924ZM70.1459 66.8938C70.1459 65.6039 69.8898 64.3732 69.4267 63.2502C67.9941 59.7805 64.5779 57.3389 60.5909 57.3389H28.7409C24.7541 57.3389 21.3377 59.7805 19.9053 63.2502C19.4418 64.3732 19.186 65.6039 19.186 66.8938C19.186 74.0034 22.1097 79.6994 26.9074 83.5501C31.6293 87.3402 37.9579 89.1888 44.666 89.1888C51.3741 89.1888 57.7028 87.3402 62.4248 83.5501C67.2221 79.6994 70.1459 74.0034 70.1459 66.8938Z" fill="white"/>
</svg>
